<svg xmlns="http://www.w3.org/2000/svg" viewBox="0 0 1200 800" role="img" aria-label="Custom order process illustration">
  <defs>
    <linearGradient id="bg" x1="0" y1="0" x2="1" y2="1">
      <stop offset="0" stop-color="#f7f2e6"/>
      <stop offset="1" stop-color="#f0f7f4"/>
    </linearGradient>
    <linearGradient id="green" x1="0" y1="0" x2="1" y2="1">
      <stop offset="0" stop-color="#2f7a63"/>
      <stop offset="1" stop-color="#7fd2b2"/>
    </linearGradient>
    <linearGradient id="gold" x1="0" y1="0" x2="1" y2="1">
      <stop offset="0" stop-color="#f1b743"/>
      <stop offset="1" stop-color="#f7de9c"/>
    </linearGradient>
  </defs>
  <rect width="1200" height="800" fill="url(#bg)"/>
  <rect x="100" y="100" width="1000" height="600" rx="34" fill="#fffdf9" stroke="#dbd2c4"/>
  <rect x="150" y="168" width="250" height="420" rx="28" fill="#f4efe6" stroke="#e2d8ca"/>
  <rect x="190" y="210" width="170" height="22" rx="11" fill="url(#green)"/>
  <rect x="190" y="256" width="146" height="14" rx="7" fill="#d8d1c5"/>
  <rect x="190" y="290" width="118" height="14" rx="7" fill="#d8d1c5"/>
  <rect x="190" y="340" width="170" height="180" rx="18" fill="#fff" stroke="#e2d8ca"/>
  <path d="M220 486h112l20-42-22-44H246l-24 46z" fill="none" stroke="url(#gold)" stroke-width="10" stroke-linejoin="round"/>
  <rect x="448" y="168" width="290" height="420" rx="28" fill="#eef6f2" stroke="#e2d8ca"/>
  <rect x="484" y="212" width="198" height="54" rx="16" fill="#fff" stroke="#e2d8ca"/>
  <rect x="484" y="286" width="198" height="54" rx="16" fill="url(#green)"/>
  <rect x="484" y="360" width="198" height="54" rx="16" fill="#fff" stroke="#e2d8ca"/>
  <rect x="484" y="434" width="198" height="54" rx="16" fill="url(#gold)"/>
  <rect x="484" y="508" width="126" height="14" rx="7" fill="#d8d1c5"/>
  <rect x="768" y="168" width="282" height="420" rx="28" fill="#f8f3ea" stroke="#e2d8ca"/>
  <circle cx="910" cy="282" r="76" fill="none" stroke="url(#green)" stroke-width="16"/>
  <circle cx="910" cy="282" r="36" fill="url(#gold)"/>
  <rect x="824" y="446" width="170" height="16" rx="8" fill="#d8d1c5"/>
  <rect x="794" y="480" width="230" height="16" rx="8" fill="#d8d1c5"/>
</svg>
